#!OML:ASF H:\Terrain\Patient Classification 1\Walking\liu\liu.ASF
:FULLY-SPECIFIED
:DEGREES
227
root 17.379499 32.401001 -10.532700 20.771799 -8.240000 -16.054581
lowerback -18.863640 6.140240 9.314920
upperback -3.025720 6.898740 7.775620
thorax 7.483040 3.496380 3.731540
lowerneck -32.500801 -12.017860 -27.885599
upperneck 31.099199 -15.495120 29.862600
head 17.372641 -6.212840 12.907040
rclavicle 0.000000 0.000000
rhumerus -81.989403 27.425600 -173.835999
rradius 102.908600
rwrist -50.230598
rhand -63.681400 -60.194599
rfingers 14.250040
rthumb -10.189920 -120.032204
lclavicle 0.000000 0.000000
lhumerus -103.951202 -16.386021 188.865997
lradius 47.883400
lwrist 8.028300
lhand -13.243920 -47.354801
lfingers 14.250040
lthumb 38.468800 10.782800
rfemur 34.991798 14.767380 63.049599
rtibia 0.000000
rfoot -21.273001 15.483160
rtoes -24.891199
lfemur -96.187401 11.028960 -24.850000
ltibia 56.839199
lfoot -12.987280 25.441401
ltoes -28.428801
228
root 17.422520 32.360802 -10.181660 21.082600 -8.513940 -15.763360
lowerback -18.948021 6.077080 8.846960
upperback -3.060620 6.868380 7.527380
thorax 7.481240 3.476780 3.731900
lowerneck -33.146400 -11.975420 -27.550200
upperneck 31.104799 -15.446480 29.890600
head 17.472019 -6.141160 12.861420
rclavicle 0.000000 0.000000
rhumerus -82.128998 26.942400 -174.341797
rradius 102.125999
rwrist -49.657600
rhand -64.324203 -61.693600
rfingers 14.250040
rthumb -10.810420 -121.515602
lclavicle 0.000000 0.000000
lhumerus -103.360001 -15.513360 187.304993
lradius 47.441399
lwrist 5.821280
lhand -15.573780 -47.794601
lfingers 14.250040
lthumb 36.227798 10.558460
rfemur 36.023800 14.686720 62.474400
rtibia -0.000000
rfoot -20.781401 15.550880
rtoes -27.698601
lfemur -97.488998 13.323720 -26.721001
ltibia 59.349602
lfoot -7.795600 23.653799
ltoes -25.865801
229
root 17.466261 32.272999 -9.868880 21.195400 -8.544460 -15.328820
lowerback -18.297220 5.831940 8.095700
upperback -3.369280 6.689160 7.356480
thorax 6.764920 3.375180 3.896500
lowerneck -32.860001 -11.842080 -27.527399
upperneck 30.922199 -15.329680 30.122200
head 17.350060 -6.076900 12.955620
rclavicle 0.000000 -0.000000
rhumerus -82.680397 26.577801 -174.841995
rradius 101.637001
rwrist -49.326401
rhand -64.150398 -63.990799
rfingers 14.250040
rthumb -10.642620 -123.817200
lclavicle 0.000000 -0.000000
lhumerus -103.423798 -15.106580 186.510406
lradius 47.016800
lwrist 4.671480
lhand -17.679741 -48.242802
lfingers 14.250040
lthumb 34.201199 10.292020
rfemur 37.144001 14.307880 61.826401
rtibia -0.000000
rfoot -19.039761 15.599280
rtoes -27.022200
lfemur -98.810997 14.857700 -28.293400
ltibia 62.210999
lfoot -4.124280 22.260599
ltoes -27.718599
230
root 17.515619 32.246399 -9.535820 21.413401 -8.509860 -14.817040
lowerback -18.015221 5.692160 7.378300
upperback -3.688340 6.615340 7.176180
thorax 6.246940 3.329200 4.069680
lowerneck -32.910801 -11.882180 -27.528601
upperneck 31.168200 -15.405260 30.110600
head 17.453320 -6.109900 12.947920
rclavicle -0.000000 -0.000000
rhumerus -83.984200 26.148001 -175.062805
rradius 102.003197
rwrist -49.477600
rhand -63.172600 -64.716202
rfingers 14.250040
rthumb -9.698600 -124.565201
lclavicle -0.000000 -0.000000
lhumerus -103.636398 -15.503160 186.568604
lradius 46.615398
lwrist 4.666360
lhand -17.045620 -47.024601
lfingers 14.250040
lthumb 34.811401 11.456780
rfemur 37.988400 13.896940 60.956799
rtibia 0.000000
rfoot -17.290400 15.523700
rtoes -22.456800
lfemur -99.666199 15.346880 -29.287201
ltibia 64.986198
lfoot -1.605822 21.740400
ltoes -26.386000
231
root 17.567980 32.230400 -9.159920 21.476801 -8.495840 -14.594240
lowerback -18.318140 5.519220 7.123020
upperback -3.514760 6.388340 6.993140
thorax 6.593820 3.216780 4.018060
lowerneck -33.631802 -11.896780 -27.191000
upperneck 31.360800 -15.425620 30.015400
head 17.634581 -6.077120 12.852360
rclavicle 0.000000 0.000000
rhumerus -84.473198 25.624399 -175.409393
rradius 101.753601
rwrist -49.195801
rhand -62.657398 -67.392799
rfingers 14.250040
rthumb -9.201100 -127.252800
lclavicle 0.000000 0.000000
lhumerus -102.921402 -15.221380 185.945801
lradius 45.812199
lwrist 4.269980
lhand -20.871799 -50.454800
lfingers 14.250040
lthumb 31.127600 8.332760
rfemur 39.158401 13.536320 60.354801
rtibia -0.000000
rfoot -16.033400 15.425380
rtoes -22.348600
lfemur -100.028397 15.988200 -30.066200
ltibia 67.576797
lfoot 0.355424 20.383801
ltoes -25.243601
232
root 17.625500 32.203201 -8.783640 21.566999 -8.404000 -13.982480
lowerback -18.759680 5.206540 6.579720
upperback -3.401740 6.005740 6.672980
thorax 6.948660 3.024080 3.968980
lowerneck -34.336201 -11.883800 -27.092800
upperneck 31.627800 -15.402820 30.133600
head 17.851299 -6.019220 12.885660
rclavicle -0.000000 0.000000
rhumerus -84.885002 25.230000 -175.866592
rradius 101.009003
rwrist -48.668400
rhand -61.748199 -69.930801
rfingers 14.250040
rthumb -8.323200 -129.809006
lclavicle -0.000000 0.000000
lhumerus -102.121399 -14.498140 184.853394
lradius 44.811001
lwrist 3.072340
lhand -16.084579 -48.730000
lfingers 14.250040
lthumb 35.736198 9.668340
rfemur 40.301800 13.046040 59.359600
rtibia -0.000000
rfoot -14.157900 15.246460
rtoes -22.948999
lfemur -100.723602 16.852261 -31.562599
ltibia 70.407600
lfoot 1.687038 18.204420
ltoes -21.961599
233
root 17.682760 32.178799 -8.441340 21.844400 -8.009200 -13.282660
lowerback -18.602859 4.976520 6.008980
upperback -3.925700 5.800400 6.362380
thorax 6.306260 2.914600 3.912580
lowerneck -34.050800 -11.965000 -27.327600
upperneck 31.694401 -15.485720 30.072800
head 17.841440 -6.089840 12.895620
rclavicle -0.000000 0.000000
rhumerus -86.711403 24.754999 -176.117203
rradius 101.005798
rwrist -48.737000
rhand -60.310200 -70.833397
rfingers 14.250040
rthumb -6.934540 -130.736404
lclavicle -0.000000 0.000000
lhumerus -102.328400 -14.646500 184.336594
lradius 44.434399
lwrist 2.311800
lhand -13.070880 -48.173599
lfingers 14.250040
lthumb 38.635201 9.947500
rfemur 41.020802 12.273640 58.317600
rtibia 0.000000
rfoot -11.854720 14.813880
rtoes -27.595600
lfemur -101.631599 16.854059 -32.813999
ltibia 72.948196
lfoot 2.416960 16.605940
ltoes -17.236280
234
root 17.793800 32.173000 -7.944560 21.591400 -8.495860 -12.511980
lowerback -19.569901 5.034980 5.877820
upperback -3.881380 5.846800 6.062220
thorax 6.896800 2.937800 3.730320
lowerneck -33.541401 -11.991640 -27.576799
upperneck 31.412001 -15.471420 29.982800
head 17.656639 -6.129880 12.902400
rclavicle 0.000000 0.000000
rhumerus -88.035400 23.764601 -175.922607
rradius 100.252403
rwrist -48.077202
rhand -58.797401 -71.606598
rfingers 14.250040
rthumb -5.473440 -131.531006
lclavicle 0.000000 0.000000
lhumerus -102.500000 -14.039880 183.686401
lradius 44.110600
lwrist 0.934608
lhand -13.482500 -48.380798
lfingers 14.250040
lthumb 38.239399 9.779720
rfemur 42.936798 12.345180 56.755199
rtibia -0.000000
rfoot -10.419600 14.705140
rtoes -31.353201
lfemur -100.968597 17.242340 -34.333401
ltibia 75.633003
lfoot 0.683524 15.370420
ltoes -15.040680
235
root 17.826420 32.180801 -7.656580 21.532600 -8.108460 -12.683680
lowerback -18.288361 4.704500 5.440600
upperback -4.378340 5.529240 6.354420
thorax 5.638440 2.773600 4.159100
lowerneck -33.723598 -11.897960 -27.927000
upperneck 31.603399 -15.356560 30.495001
head 17.774740 -6.041820 13.173140
rclavicle 0.000000 0.000000
rhumerus -88.810204 22.897600 -175.796402
rradius 98.923203
rwrist -47.099201
rhand -57.884602 -64.355598
rfingers 14.250040
rthumb -4.591900 -124.290398
lclavicle 0.000000 0.000000
lhumerus -102.179604 -13.019920 182.965393
lradius 43.188801
lwrist -0.987216
lhand -14.213660 -48.443600
lfingers 14.250040
lthumb 37.536201 9.785520
rfemur 43.659000 11.631200 56.834801
rtibia -0.000000
rfoot -7.977660 13.974060
rtoes -34.389599
lfemur -101.426201 17.587740 -34.575600
ltibia 78.032600
lfoot -0.220504 14.243780
ltoes -13.386740
236
root 17.891300 32.194599 -7.299540 21.466801 -7.922420 -12.199760
lowerback -18.036039 4.555180 4.982460
upperback -4.462440 5.394300 6.222180
thorax 5.399160 2.704140 4.247760
lowerneck -34.631599 -11.997420 -28.375000
upperneck 31.986000 -15.437380 31.108000
head 18.132681 -6.010920 13.473480
rclavicle -0.000000 -0.000000
rhumerus -89.432999 22.765200 -175.954605
rradius 97.922203
rwrist -47.533600
rhand -57.659199 -52.212399
rfingers 14.250040
rthumb -4.374280 -112.149597
lclavicle -0.000000 -0.000000
lhumerus -101.277603 -12.622580 182.494400
lradius 42.230801
lwrist -2.179360
lhand -13.594780 -47.957600
lfingers 14.250040
lthumb 38.131401 10.213500
rfemur 44.600800 11.061800 55.958000
rtibia 0.000000
rfoot -4.945620 13.177580
rtoes -34.603600
lfemur -101.438004 18.172119 -35.907200
ltibia 80.501404
lfoot -1.426652 13.075520
ltoes -10.752020
